<mxfile host="app.diagrams.net" modified="2024-03-20T11:30:38.189Z" agent="Mozilla/5.0 (Windows NT 10.0; Win64; x64) AppleWebKit/537.36 (KHTML, like Gecko) Chrome/122.0.0.0 Safari/537.36" etag="luVfrIke72zVTNGhCbvE" version="24.0.7" type="device">
  <diagram name="Page-1" id="qT1vffZP778EWxsKvVXV">
    <mxGraphModel dx="821" dy="314" grid="1" gridSize="10" guides="1" tooltips="1" connect="1" arrows="1" fold="1" page="1" pageScale="1" pageWidth="850" pageHeight="1100" math="0" shadow="0">
      <root>
        <mxCell id="0" />
        <mxCell id="1" parent="0" />
        <mxCell id="SyvliLSKCz2b93etHHuC-1" value="" style="ellipse;whiteSpace=wrap;html=1;aspect=fixed;" vertex="1" parent="1">
          <mxGeometry x="330" y="455" width="190" height="190" as="geometry" />
        </mxCell>
        <mxCell id="SyvliLSKCz2b93etHHuC-2" value="" style="ellipse;whiteSpace=wrap;html=1;aspect=fixed;" vertex="1" parent="1">
          <mxGeometry x="470" y="540" width="20" height="20" as="geometry" />
        </mxCell>
        <mxCell id="SyvliLSKCz2b93etHHuC-3" value="" style="ellipse;whiteSpace=wrap;html=1;aspect=fixed;" vertex="1" parent="1">
          <mxGeometry x="360" y="540" width="20" height="20" as="geometry" />
        </mxCell>
        <mxCell id="SyvliLSKCz2b93etHHuC-8" value="" style="endArrow=none;dashed=1;html=1;rounded=0;" edge="1" parent="1">
          <mxGeometry width="50" height="50" relative="1" as="geometry">
            <mxPoint x="425" y="680" as="sourcePoint" />
            <mxPoint x="425" y="440" as="targetPoint" />
          </mxGeometry>
        </mxCell>
        <mxCell id="SyvliLSKCz2b93etHHuC-9" value="" style="endArrow=none;dashed=1;html=1;rounded=0;" edge="1" parent="1">
          <mxGeometry width="50" height="50" relative="1" as="geometry">
            <mxPoint x="420" y="680" as="sourcePoint" />
            <mxPoint x="420" y="440" as="targetPoint" />
          </mxGeometry>
        </mxCell>
        <mxCell id="SyvliLSKCz2b93etHHuC-10" value="" style="endArrow=none;dashed=1;html=1;rounded=0;" edge="1" parent="1">
          <mxGeometry width="50" height="50" relative="1" as="geometry">
            <mxPoint x="415" y="680" as="sourcePoint" />
            <mxPoint x="415" y="440" as="targetPoint" />
          </mxGeometry>
        </mxCell>
        <mxCell id="SyvliLSKCz2b93etHHuC-11" value="" style="endArrow=none;dashed=1;html=1;rounded=0;" edge="1" parent="1">
          <mxGeometry width="50" height="50" relative="1" as="geometry">
            <mxPoint x="410" y="680" as="sourcePoint" />
            <mxPoint x="410" y="440" as="targetPoint" />
          </mxGeometry>
        </mxCell>
        <mxCell id="SyvliLSKCz2b93etHHuC-12" value="" style="endArrow=none;dashed=1;html=1;rounded=0;" edge="1" parent="1">
          <mxGeometry width="50" height="50" relative="1" as="geometry">
            <mxPoint x="405" y="680" as="sourcePoint" />
            <mxPoint x="405" y="440" as="targetPoint" />
          </mxGeometry>
        </mxCell>
        <mxCell id="SyvliLSKCz2b93etHHuC-13" value="" style="endArrow=none;dashed=1;html=1;rounded=0;" edge="1" parent="1">
          <mxGeometry width="50" height="50" relative="1" as="geometry">
            <mxPoint x="400" y="680" as="sourcePoint" />
            <mxPoint x="400" y="440" as="targetPoint" />
          </mxGeometry>
        </mxCell>
        <mxCell id="SyvliLSKCz2b93etHHuC-14" value="" style="endArrow=none;dashed=1;html=1;rounded=0;" edge="1" parent="1">
          <mxGeometry width="50" height="50" relative="1" as="geometry">
            <mxPoint x="395" y="680" as="sourcePoint" />
            <mxPoint x="395" y="440" as="targetPoint" />
          </mxGeometry>
        </mxCell>
        <mxCell id="SyvliLSKCz2b93etHHuC-15" value="" style="endArrow=none;dashed=1;html=1;rounded=0;" edge="1" parent="1">
          <mxGeometry width="50" height="50" relative="1" as="geometry">
            <mxPoint x="390" y="680" as="sourcePoint" />
            <mxPoint x="390" y="440" as="targetPoint" />
          </mxGeometry>
        </mxCell>
        <mxCell id="SyvliLSKCz2b93etHHuC-16" value="" style="endArrow=none;dashed=1;html=1;rounded=0;" edge="1" parent="1">
          <mxGeometry width="50" height="50" relative="1" as="geometry">
            <mxPoint x="385" y="680" as="sourcePoint" />
            <mxPoint x="385" y="440" as="targetPoint" />
          </mxGeometry>
        </mxCell>
        <mxCell id="SyvliLSKCz2b93etHHuC-17" value="" style="endArrow=none;dashed=1;html=1;rounded=0;" edge="1" parent="1">
          <mxGeometry width="50" height="50" relative="1" as="geometry">
            <mxPoint x="380" y="680" as="sourcePoint" />
            <mxPoint x="380" y="440" as="targetPoint" />
          </mxGeometry>
        </mxCell>
        <mxCell id="SyvliLSKCz2b93etHHuC-18" value="" style="endArrow=none;dashed=1;html=1;rounded=0;entryX=0.756;entryY=1.175;entryDx=0;entryDy=0;entryPerimeter=0;" edge="1" parent="1" target="SyvliLSKCz2b93etHHuC-3">
          <mxGeometry width="50" height="50" relative="1" as="geometry">
            <mxPoint x="375" y="680" as="sourcePoint" />
            <mxPoint x="375" y="570" as="targetPoint" />
          </mxGeometry>
        </mxCell>
        <mxCell id="SyvliLSKCz2b93etHHuC-19" value="" style="endArrow=none;dashed=1;html=1;rounded=0;entryX=0.478;entryY=1.175;entryDx=0;entryDy=0;entryPerimeter=0;" edge="1" parent="1" target="SyvliLSKCz2b93etHHuC-3">
          <mxGeometry width="50" height="50" relative="1" as="geometry">
            <mxPoint x="370" y="680" as="sourcePoint" />
            <mxPoint x="370" y="570" as="targetPoint" />
          </mxGeometry>
        </mxCell>
        <mxCell id="SyvliLSKCz2b93etHHuC-20" value="" style="endArrow=none;dashed=1;html=1;rounded=0;" edge="1" parent="1">
          <mxGeometry width="50" height="50" relative="1" as="geometry">
            <mxPoint x="365" y="680" as="sourcePoint" />
            <mxPoint x="365" y="560" as="targetPoint" />
          </mxGeometry>
        </mxCell>
        <mxCell id="SyvliLSKCz2b93etHHuC-21" value="" style="endArrow=none;dashed=1;html=1;rounded=0;" edge="1" parent="1">
          <mxGeometry width="50" height="50" relative="1" as="geometry">
            <mxPoint x="360" y="680" as="sourcePoint" />
            <mxPoint x="360" y="440" as="targetPoint" />
          </mxGeometry>
        </mxCell>
        <mxCell id="SyvliLSKCz2b93etHHuC-22" value="" style="endArrow=none;dashed=1;html=1;rounded=0;" edge="1" parent="1">
          <mxGeometry width="50" height="50" relative="1" as="geometry">
            <mxPoint x="355" y="680" as="sourcePoint" />
            <mxPoint x="355" y="440" as="targetPoint" />
          </mxGeometry>
        </mxCell>
        <mxCell id="SyvliLSKCz2b93etHHuC-23" value="" style="endArrow=none;dashed=1;html=1;rounded=0;" edge="1" parent="1">
          <mxGeometry width="50" height="50" relative="1" as="geometry">
            <mxPoint x="350" y="680" as="sourcePoint" />
            <mxPoint x="350" y="440" as="targetPoint" />
          </mxGeometry>
        </mxCell>
        <mxCell id="SyvliLSKCz2b93etHHuC-24" value="" style="endArrow=none;dashed=1;html=1;rounded=0;" edge="1" parent="1">
          <mxGeometry width="50" height="50" relative="1" as="geometry">
            <mxPoint x="345" y="680" as="sourcePoint" />
            <mxPoint x="345" y="440" as="targetPoint" />
          </mxGeometry>
        </mxCell>
        <mxCell id="SyvliLSKCz2b93etHHuC-25" value="" style="endArrow=none;dashed=1;html=1;rounded=0;" edge="1" parent="1">
          <mxGeometry width="50" height="50" relative="1" as="geometry">
            <mxPoint x="340" y="680" as="sourcePoint" />
            <mxPoint x="340" y="440" as="targetPoint" />
          </mxGeometry>
        </mxCell>
        <mxCell id="SyvliLSKCz2b93etHHuC-26" value="" style="endArrow=none;dashed=1;html=1;rounded=0;" edge="1" parent="1">
          <mxGeometry width="50" height="50" relative="1" as="geometry">
            <mxPoint x="335" y="680" as="sourcePoint" />
            <mxPoint x="335" y="440" as="targetPoint" />
          </mxGeometry>
        </mxCell>
        <mxCell id="SyvliLSKCz2b93etHHuC-27" value="" style="endArrow=none;dashed=1;html=1;rounded=0;" edge="1" parent="1">
          <mxGeometry width="50" height="50" relative="1" as="geometry">
            <mxPoint x="330" y="680" as="sourcePoint" />
            <mxPoint x="330" y="440" as="targetPoint" />
          </mxGeometry>
        </mxCell>
        <mxCell id="SyvliLSKCz2b93etHHuC-48" value="" style="endArrow=none;dashed=1;html=1;rounded=0;" edge="1" parent="1">
          <mxGeometry width="50" height="50" relative="1" as="geometry">
            <mxPoint x="470" y="550" as="sourcePoint" />
            <mxPoint x="425" y="550" as="targetPoint" />
          </mxGeometry>
        </mxCell>
        <mxCell id="SyvliLSKCz2b93etHHuC-49" value="" style="endArrow=none;dashed=1;html=1;rounded=0;" edge="1" parent="1">
          <mxGeometry width="50" height="50" relative="1" as="geometry">
            <mxPoint x="530" y="559.6" as="sourcePoint" />
            <mxPoint x="425" y="559.6" as="targetPoint" />
          </mxGeometry>
        </mxCell>
        <mxCell id="SyvliLSKCz2b93etHHuC-50" value="" style="endArrow=none;dashed=1;html=1;rounded=0;" edge="1" parent="1">
          <mxGeometry width="50" height="50" relative="1" as="geometry">
            <mxPoint x="470" y="555" as="sourcePoint" />
            <mxPoint x="425.5" y="554.6" as="targetPoint" />
          </mxGeometry>
        </mxCell>
        <mxCell id="SyvliLSKCz2b93etHHuC-51" value="" style="endArrow=none;dashed=1;html=1;rounded=0;" edge="1" parent="1">
          <mxGeometry width="50" height="50" relative="1" as="geometry">
            <mxPoint x="530" y="536" as="sourcePoint" />
            <mxPoint x="425" y="536" as="targetPoint" />
          </mxGeometry>
        </mxCell>
        <mxCell id="SyvliLSKCz2b93etHHuC-52" value="" style="endArrow=none;dashed=1;html=1;rounded=0;exitX=0.033;exitY=0.272;exitDx=0;exitDy=0;exitPerimeter=0;" edge="1" parent="1" source="SyvliLSKCz2b93etHHuC-2">
          <mxGeometry width="50" height="50" relative="1" as="geometry">
            <mxPoint x="530" y="545.6" as="sourcePoint" />
            <mxPoint x="425" y="545.6" as="targetPoint" />
          </mxGeometry>
        </mxCell>
        <mxCell id="SyvliLSKCz2b93etHHuC-53" value="" style="endArrow=none;dashed=1;html=1;rounded=0;" edge="1" parent="1">
          <mxGeometry width="50" height="50" relative="1" as="geometry">
            <mxPoint x="530.5" y="540.6" as="sourcePoint" />
            <mxPoint x="425.5" y="540.6" as="targetPoint" />
          </mxGeometry>
        </mxCell>
        <mxCell id="SyvliLSKCz2b93etHHuC-54" value="" style="endArrow=none;dashed=1;html=1;rounded=0;" edge="1" parent="1">
          <mxGeometry width="50" height="50" relative="1" as="geometry">
            <mxPoint x="530" y="577" as="sourcePoint" />
            <mxPoint x="425" y="577" as="targetPoint" />
          </mxGeometry>
        </mxCell>
        <mxCell id="SyvliLSKCz2b93etHHuC-55" value="" style="endArrow=none;dashed=1;html=1;rounded=0;" edge="1" parent="1">
          <mxGeometry width="50" height="50" relative="1" as="geometry">
            <mxPoint x="530" y="586.6" as="sourcePoint" />
            <mxPoint x="425" y="586.6" as="targetPoint" />
          </mxGeometry>
        </mxCell>
        <mxCell id="SyvliLSKCz2b93etHHuC-56" value="" style="endArrow=none;dashed=1;html=1;rounded=0;" edge="1" parent="1">
          <mxGeometry width="50" height="50" relative="1" as="geometry">
            <mxPoint x="530.5" y="581.6" as="sourcePoint" />
            <mxPoint x="425.5" y="581.6" as="targetPoint" />
          </mxGeometry>
        </mxCell>
        <mxCell id="SyvliLSKCz2b93etHHuC-57" value="" style="endArrow=none;dashed=1;html=1;rounded=0;" edge="1" parent="1">
          <mxGeometry width="50" height="50" relative="1" as="geometry">
            <mxPoint x="530" y="563" as="sourcePoint" />
            <mxPoint x="425" y="563" as="targetPoint" />
          </mxGeometry>
        </mxCell>
        <mxCell id="SyvliLSKCz2b93etHHuC-58" value="" style="endArrow=none;dashed=1;html=1;rounded=0;" edge="1" parent="1">
          <mxGeometry width="50" height="50" relative="1" as="geometry">
            <mxPoint x="530" y="572.6" as="sourcePoint" />
            <mxPoint x="425" y="572.6" as="targetPoint" />
          </mxGeometry>
        </mxCell>
        <mxCell id="SyvliLSKCz2b93etHHuC-59" value="" style="endArrow=none;dashed=1;html=1;rounded=0;" edge="1" parent="1">
          <mxGeometry width="50" height="50" relative="1" as="geometry">
            <mxPoint x="530.5" y="567.6" as="sourcePoint" />
            <mxPoint x="425.5" y="567.6" as="targetPoint" />
          </mxGeometry>
        </mxCell>
        <mxCell id="SyvliLSKCz2b93etHHuC-60" value="" style="endArrow=none;dashed=1;html=1;rounded=0;" edge="1" parent="1">
          <mxGeometry width="50" height="50" relative="1" as="geometry">
            <mxPoint x="530" y="604" as="sourcePoint" />
            <mxPoint x="425" y="604" as="targetPoint" />
          </mxGeometry>
        </mxCell>
        <mxCell id="SyvliLSKCz2b93etHHuC-61" value="" style="endArrow=none;dashed=1;html=1;rounded=0;" edge="1" parent="1">
          <mxGeometry width="50" height="50" relative="1" as="geometry">
            <mxPoint x="530" y="613.6" as="sourcePoint" />
            <mxPoint x="425" y="613.6" as="targetPoint" />
          </mxGeometry>
        </mxCell>
        <mxCell id="SyvliLSKCz2b93etHHuC-62" value="" style="endArrow=none;dashed=1;html=1;rounded=0;" edge="1" parent="1">
          <mxGeometry width="50" height="50" relative="1" as="geometry">
            <mxPoint x="530.5" y="608.6" as="sourcePoint" />
            <mxPoint x="425.5" y="608.6" as="targetPoint" />
          </mxGeometry>
        </mxCell>
        <mxCell id="SyvliLSKCz2b93etHHuC-63" value="" style="endArrow=none;dashed=1;html=1;rounded=0;" edge="1" parent="1">
          <mxGeometry width="50" height="50" relative="1" as="geometry">
            <mxPoint x="530" y="590" as="sourcePoint" />
            <mxPoint x="425" y="590" as="targetPoint" />
          </mxGeometry>
        </mxCell>
        <mxCell id="SyvliLSKCz2b93etHHuC-64" value="" style="endArrow=none;dashed=1;html=1;rounded=0;" edge="1" parent="1">
          <mxGeometry width="50" height="50" relative="1" as="geometry">
            <mxPoint x="530" y="599.6" as="sourcePoint" />
            <mxPoint x="425" y="599.6" as="targetPoint" />
          </mxGeometry>
        </mxCell>
        <mxCell id="SyvliLSKCz2b93etHHuC-65" value="" style="endArrow=none;dashed=1;html=1;rounded=0;" edge="1" parent="1">
          <mxGeometry width="50" height="50" relative="1" as="geometry">
            <mxPoint x="530.5" y="594.6" as="sourcePoint" />
            <mxPoint x="425.5" y="594.6" as="targetPoint" />
          </mxGeometry>
        </mxCell>
        <mxCell id="SyvliLSKCz2b93etHHuC-66" value="" style="endArrow=none;dashed=1;html=1;rounded=0;" edge="1" parent="1">
          <mxGeometry width="50" height="50" relative="1" as="geometry">
            <mxPoint x="530.25" y="632" as="sourcePoint" />
            <mxPoint x="425.25" y="632" as="targetPoint" />
          </mxGeometry>
        </mxCell>
        <mxCell id="SyvliLSKCz2b93etHHuC-67" value="" style="endArrow=none;dashed=1;html=1;rounded=0;" edge="1" parent="1">
          <mxGeometry width="50" height="50" relative="1" as="geometry">
            <mxPoint x="530.25" y="641.6" as="sourcePoint" />
            <mxPoint x="425.25" y="641.6" as="targetPoint" />
          </mxGeometry>
        </mxCell>
        <mxCell id="SyvliLSKCz2b93etHHuC-68" value="" style="endArrow=none;dashed=1;html=1;rounded=0;" edge="1" parent="1">
          <mxGeometry width="50" height="50" relative="1" as="geometry">
            <mxPoint x="530.75" y="636.6" as="sourcePoint" />
            <mxPoint x="425.75" y="636.6" as="targetPoint" />
          </mxGeometry>
        </mxCell>
        <mxCell id="SyvliLSKCz2b93etHHuC-69" value="" style="endArrow=none;dashed=1;html=1;rounded=0;" edge="1" parent="1">
          <mxGeometry width="50" height="50" relative="1" as="geometry">
            <mxPoint x="530.25" y="618" as="sourcePoint" />
            <mxPoint x="425.25" y="618" as="targetPoint" />
          </mxGeometry>
        </mxCell>
        <mxCell id="SyvliLSKCz2b93etHHuC-70" value="" style="endArrow=none;dashed=1;html=1;rounded=0;" edge="1" parent="1">
          <mxGeometry width="50" height="50" relative="1" as="geometry">
            <mxPoint x="530.25" y="627.6" as="sourcePoint" />
            <mxPoint x="425.25" y="627.6" as="targetPoint" />
          </mxGeometry>
        </mxCell>
        <mxCell id="SyvliLSKCz2b93etHHuC-71" value="" style="endArrow=none;dashed=1;html=1;rounded=0;" edge="1" parent="1">
          <mxGeometry width="50" height="50" relative="1" as="geometry">
            <mxPoint x="530.75" y="622.6" as="sourcePoint" />
            <mxPoint x="425.75" y="622.6" as="targetPoint" />
          </mxGeometry>
        </mxCell>
        <mxCell id="SyvliLSKCz2b93etHHuC-72" value="" style="endArrow=none;dashed=1;html=1;rounded=0;" edge="1" parent="1">
          <mxGeometry width="50" height="50" relative="1" as="geometry">
            <mxPoint x="530" y="659" as="sourcePoint" />
            <mxPoint x="425" y="659" as="targetPoint" />
          </mxGeometry>
        </mxCell>
        <mxCell id="SyvliLSKCz2b93etHHuC-73" value="" style="endArrow=none;dashed=1;html=1;rounded=0;" edge="1" parent="1">
          <mxGeometry width="50" height="50" relative="1" as="geometry">
            <mxPoint x="530" y="668.6" as="sourcePoint" />
            <mxPoint x="425" y="668.6" as="targetPoint" />
          </mxGeometry>
        </mxCell>
        <mxCell id="SyvliLSKCz2b93etHHuC-74" value="" style="endArrow=none;dashed=1;html=1;rounded=0;" edge="1" parent="1">
          <mxGeometry width="50" height="50" relative="1" as="geometry">
            <mxPoint x="530.5" y="663.6" as="sourcePoint" />
            <mxPoint x="425.5" y="663.6" as="targetPoint" />
          </mxGeometry>
        </mxCell>
        <mxCell id="SyvliLSKCz2b93etHHuC-75" value="" style="endArrow=none;dashed=1;html=1;rounded=0;" edge="1" parent="1">
          <mxGeometry width="50" height="50" relative="1" as="geometry">
            <mxPoint x="530" y="645" as="sourcePoint" />
            <mxPoint x="425" y="645" as="targetPoint" />
          </mxGeometry>
        </mxCell>
        <mxCell id="SyvliLSKCz2b93etHHuC-76" value="" style="endArrow=none;dashed=1;html=1;rounded=0;" edge="1" parent="1">
          <mxGeometry width="50" height="50" relative="1" as="geometry">
            <mxPoint x="530" y="654.6" as="sourcePoint" />
            <mxPoint x="425" y="654.6" as="targetPoint" />
          </mxGeometry>
        </mxCell>
        <mxCell id="SyvliLSKCz2b93etHHuC-77" value="" style="endArrow=none;dashed=1;html=1;rounded=0;" edge="1" parent="1">
          <mxGeometry width="50" height="50" relative="1" as="geometry">
            <mxPoint x="530.5" y="649.6" as="sourcePoint" />
            <mxPoint x="425.5" y="649.6" as="targetPoint" />
          </mxGeometry>
        </mxCell>
        <mxCell id="SyvliLSKCz2b93etHHuC-78" value="" style="endArrow=none;dashed=1;html=1;rounded=0;" edge="1" parent="1">
          <mxGeometry width="50" height="50" relative="1" as="geometry">
            <mxPoint x="530" y="522.4" as="sourcePoint" />
            <mxPoint x="425" y="522.4" as="targetPoint" />
          </mxGeometry>
        </mxCell>
        <mxCell id="SyvliLSKCz2b93etHHuC-79" value="" style="endArrow=none;dashed=1;html=1;rounded=0;" edge="1" parent="1">
          <mxGeometry width="50" height="50" relative="1" as="geometry">
            <mxPoint x="530" y="532" as="sourcePoint" />
            <mxPoint x="425" y="532" as="targetPoint" />
          </mxGeometry>
        </mxCell>
        <mxCell id="SyvliLSKCz2b93etHHuC-80" value="" style="endArrow=none;dashed=1;html=1;rounded=0;" edge="1" parent="1">
          <mxGeometry width="50" height="50" relative="1" as="geometry">
            <mxPoint x="530.5" y="527" as="sourcePoint" />
            <mxPoint x="425.5" y="527" as="targetPoint" />
          </mxGeometry>
        </mxCell>
        <mxCell id="SyvliLSKCz2b93etHHuC-81" value="" style="endArrow=none;dashed=1;html=1;rounded=0;" edge="1" parent="1">
          <mxGeometry width="50" height="50" relative="1" as="geometry">
            <mxPoint x="530" y="518" as="sourcePoint" />
            <mxPoint x="425" y="518" as="targetPoint" />
          </mxGeometry>
        </mxCell>
        <mxCell id="SyvliLSKCz2b93etHHuC-82" value="" style="endArrow=none;dashed=1;html=1;rounded=0;" edge="1" parent="1">
          <mxGeometry width="50" height="50" relative="1" as="geometry">
            <mxPoint x="530.5" y="513" as="sourcePoint" />
            <mxPoint x="425.5" y="513" as="targetPoint" />
          </mxGeometry>
        </mxCell>
        <mxCell id="SyvliLSKCz2b93etHHuC-83" value="" style="endArrow=none;dashed=1;html=1;rounded=0;" edge="1" parent="1">
          <mxGeometry width="50" height="50" relative="1" as="geometry">
            <mxPoint x="530" y="499.4" as="sourcePoint" />
            <mxPoint x="425" y="499.4" as="targetPoint" />
          </mxGeometry>
        </mxCell>
        <mxCell id="SyvliLSKCz2b93etHHuC-84" value="" style="endArrow=none;dashed=1;html=1;rounded=0;" edge="1" parent="1">
          <mxGeometry width="50" height="50" relative="1" as="geometry">
            <mxPoint x="530" y="509" as="sourcePoint" />
            <mxPoint x="425" y="509" as="targetPoint" />
          </mxGeometry>
        </mxCell>
        <mxCell id="SyvliLSKCz2b93etHHuC-85" value="" style="endArrow=none;dashed=1;html=1;rounded=0;" edge="1" parent="1">
          <mxGeometry width="50" height="50" relative="1" as="geometry">
            <mxPoint x="530.5" y="504" as="sourcePoint" />
            <mxPoint x="425.5" y="504" as="targetPoint" />
          </mxGeometry>
        </mxCell>
        <mxCell id="SyvliLSKCz2b93etHHuC-86" value="" style="endArrow=none;dashed=1;html=1;rounded=0;" edge="1" parent="1">
          <mxGeometry width="50" height="50" relative="1" as="geometry">
            <mxPoint x="530" y="495" as="sourcePoint" />
            <mxPoint x="425" y="495" as="targetPoint" />
          </mxGeometry>
        </mxCell>
        <mxCell id="SyvliLSKCz2b93etHHuC-87" value="" style="endArrow=none;dashed=1;html=1;rounded=0;" edge="1" parent="1">
          <mxGeometry width="50" height="50" relative="1" as="geometry">
            <mxPoint x="530.5" y="490" as="sourcePoint" />
            <mxPoint x="425.5" y="490" as="targetPoint" />
          </mxGeometry>
        </mxCell>
        <mxCell id="SyvliLSKCz2b93etHHuC-88" value="" style="endArrow=none;dashed=1;html=1;rounded=0;" edge="1" parent="1">
          <mxGeometry width="50" height="50" relative="1" as="geometry">
            <mxPoint x="530" y="476.4" as="sourcePoint" />
            <mxPoint x="425" y="476.4" as="targetPoint" />
          </mxGeometry>
        </mxCell>
        <mxCell id="SyvliLSKCz2b93etHHuC-89" value="" style="endArrow=none;dashed=1;html=1;rounded=0;" edge="1" parent="1">
          <mxGeometry width="50" height="50" relative="1" as="geometry">
            <mxPoint x="530" y="486" as="sourcePoint" />
            <mxPoint x="425" y="486" as="targetPoint" />
          </mxGeometry>
        </mxCell>
        <mxCell id="SyvliLSKCz2b93etHHuC-90" value="" style="endArrow=none;dashed=1;html=1;rounded=0;" edge="1" parent="1">
          <mxGeometry width="50" height="50" relative="1" as="geometry">
            <mxPoint x="530.5" y="481" as="sourcePoint" />
            <mxPoint x="425.5" y="481" as="targetPoint" />
          </mxGeometry>
        </mxCell>
        <mxCell id="SyvliLSKCz2b93etHHuC-91" value="" style="endArrow=none;dashed=1;html=1;rounded=0;" edge="1" parent="1">
          <mxGeometry width="50" height="50" relative="1" as="geometry">
            <mxPoint x="530" y="472" as="sourcePoint" />
            <mxPoint x="425" y="472" as="targetPoint" />
          </mxGeometry>
        </mxCell>
        <mxCell id="SyvliLSKCz2b93etHHuC-92" value="" style="endArrow=none;dashed=1;html=1;rounded=0;" edge="1" parent="1">
          <mxGeometry width="50" height="50" relative="1" as="geometry">
            <mxPoint x="530.5" y="467" as="sourcePoint" />
            <mxPoint x="425.5" y="467" as="targetPoint" />
          </mxGeometry>
        </mxCell>
        <mxCell id="SyvliLSKCz2b93etHHuC-93" value="" style="endArrow=none;dashed=1;html=1;rounded=0;" edge="1" parent="1">
          <mxGeometry width="50" height="50" relative="1" as="geometry">
            <mxPoint x="530" y="453.4" as="sourcePoint" />
            <mxPoint x="425" y="453.4" as="targetPoint" />
          </mxGeometry>
        </mxCell>
        <mxCell id="SyvliLSKCz2b93etHHuC-94" value="" style="endArrow=none;dashed=1;html=1;rounded=0;" edge="1" parent="1">
          <mxGeometry width="50" height="50" relative="1" as="geometry">
            <mxPoint x="530" y="463" as="sourcePoint" />
            <mxPoint x="425" y="463" as="targetPoint" />
          </mxGeometry>
        </mxCell>
        <mxCell id="SyvliLSKCz2b93etHHuC-95" value="" style="endArrow=none;dashed=1;html=1;rounded=0;" edge="1" parent="1">
          <mxGeometry width="50" height="50" relative="1" as="geometry">
            <mxPoint x="530.5" y="458" as="sourcePoint" />
            <mxPoint x="425.5" y="458" as="targetPoint" />
          </mxGeometry>
        </mxCell>
        <mxCell id="SyvliLSKCz2b93etHHuC-96" value="" style="endArrow=none;dashed=1;html=1;rounded=0;" edge="1" parent="1">
          <mxGeometry width="50" height="50" relative="1" as="geometry">
            <mxPoint x="530" y="449" as="sourcePoint" />
            <mxPoint x="425" y="449" as="targetPoint" />
          </mxGeometry>
        </mxCell>
        <mxCell id="SyvliLSKCz2b93etHHuC-97" value="" style="endArrow=none;dashed=1;html=1;rounded=0;" edge="1" parent="1">
          <mxGeometry width="50" height="50" relative="1" as="geometry">
            <mxPoint x="530.5" y="444" as="sourcePoint" />
            <mxPoint x="425.5" y="444" as="targetPoint" />
          </mxGeometry>
        </mxCell>
        <mxCell id="SyvliLSKCz2b93etHHuC-98" value="" style="endArrow=none;dashed=1;html=1;rounded=0;" edge="1" parent="1">
          <mxGeometry width="50" height="50" relative="1" as="geometry">
            <mxPoint x="530" y="678" as="sourcePoint" />
            <mxPoint x="425" y="678" as="targetPoint" />
          </mxGeometry>
        </mxCell>
        <mxCell id="SyvliLSKCz2b93etHHuC-99" value="" style="endArrow=none;dashed=1;html=1;rounded=0;" edge="1" parent="1">
          <mxGeometry width="50" height="50" relative="1" as="geometry">
            <mxPoint x="530.5" y="673" as="sourcePoint" />
            <mxPoint x="425.5" y="673" as="targetPoint" />
          </mxGeometry>
        </mxCell>
        <mxCell id="SyvliLSKCz2b93etHHuC-100" value="" style="endArrow=none;dashed=1;html=1;rounded=0;" edge="1" parent="1">
          <mxGeometry width="50" height="50" relative="1" as="geometry">
            <mxPoint x="369.86" y="540" as="sourcePoint" />
            <mxPoint x="370" y="440" as="targetPoint" />
          </mxGeometry>
        </mxCell>
        <mxCell id="SyvliLSKCz2b93etHHuC-101" value="" style="endArrow=none;dashed=1;html=1;rounded=0;" edge="1" parent="1">
          <mxGeometry width="50" height="50" relative="1" as="geometry">
            <mxPoint x="374.86" y="540" as="sourcePoint" />
            <mxPoint x="375" y="440" as="targetPoint" />
          </mxGeometry>
        </mxCell>
        <mxCell id="SyvliLSKCz2b93etHHuC-102" value="" style="endArrow=none;dashed=1;html=1;rounded=0;exitX=0.2;exitY=-0.006;exitDx=0;exitDy=0;exitPerimeter=0;" edge="1" parent="1" source="SyvliLSKCz2b93etHHuC-3">
          <mxGeometry width="50" height="50" relative="1" as="geometry">
            <mxPoint x="364" y="530" as="sourcePoint" />
            <mxPoint x="364.14" y="440" as="targetPoint" />
          </mxGeometry>
        </mxCell>
        <mxCell id="SyvliLSKCz2b93etHHuC-103" value="" style="endArrow=none;dashed=1;html=1;rounded=0;" edge="1" parent="1">
          <mxGeometry width="50" height="50" relative="1" as="geometry">
            <mxPoint x="530" y="545" as="sourcePoint" />
            <mxPoint x="490" y="545.6" as="targetPoint" />
          </mxGeometry>
        </mxCell>
        <mxCell id="SyvliLSKCz2b93etHHuC-104" value="" style="endArrow=none;dashed=1;html=1;rounded=0;" edge="1" parent="1">
          <mxGeometry width="50" height="50" relative="1" as="geometry">
            <mxPoint x="530" y="549" as="sourcePoint" />
            <mxPoint x="490" y="549.6" as="targetPoint" />
          </mxGeometry>
        </mxCell>
        <mxCell id="SyvliLSKCz2b93etHHuC-105" value="" style="endArrow=none;dashed=1;html=1;rounded=0;" edge="1" parent="1">
          <mxGeometry width="50" height="50" relative="1" as="geometry">
            <mxPoint x="529" y="554" as="sourcePoint" />
            <mxPoint x="489" y="554.6" as="targetPoint" />
          </mxGeometry>
        </mxCell>
        <mxCell id="SyvliLSKCz2b93etHHuC-106" value="" style="endArrow=none;html=1;rounded=0;strokeWidth=3;" edge="1" parent="1">
          <mxGeometry width="50" height="50" relative="1" as="geometry">
            <mxPoint x="425" y="710" as="sourcePoint" />
            <mxPoint x="425" y="420" as="targetPoint" />
          </mxGeometry>
        </mxCell>
      </root>
    </mxGraphModel>
  </diagram>
</mxfile>
